<svg xmlns="http://www.w3.org/2000/svg" viewBox="0 0 216 40" fill="none" role="img" aria-label="Ari Meetings wordmark">
  <!-- Mark (Dictation, scaled) + "Ari Meetings".
       NOTE: the text element renders in the viewer's system face as a stand-in; the canonical
       wordmark sets "Ari Meetings" in Bricolage Grotesque 700 — re-export with outlined text
       once the face is bundled. Tint via currentColor. -->
  <g stroke="currentColor" stroke-linecap="round" transform="translate(0 4) scale(0.5)">
    <path d="M46 26 C37 18 23 23 21 34 C19 46 31 54 41 48" stroke-width="10" fill="none"/>
    <path d="M47 20 C45.3 30 45.3 40 48 47" stroke-width="10" fill="none"/>
    <path d="M48 47 C50.5 51.5 55 49.5 57 43 C58.6 38 60 34.5 62.5 34.5" stroke-width="7" fill="none"/>
    <path d="M62.5 34.5 C66 34.5 65.5 45 69.5 45 C73.5 45 73.5 29.5 78 29" stroke-width="5.5" fill="none"/>
    <path d="M78 29 C81.5 28.7 82 38 86 40 C88.3 41 90.5 40 92.5 37.5" stroke-width="4" fill="none"/>
  </g>
  <text x="58" y="27" fill="currentColor" font-family="Bricolage Grotesque, -apple-system, BlinkMacSystemFont, system-ui, sans-serif" font-size="19" font-weight="700" letter-spacing="-0.2">Ari Meetings</text>
</svg>
